<?xml version="1.0" encoding="utf-8"?>
<!-- Generator: Adobe Illustrator 21.1.0, SVG Export Plug-In . SVG Version: 6.00 Build 0)  -->
<svg version="1.1" id="Layer_1" xmlns="http://www.w3.org/2000/svg" xmlns:xlink="http://www.w3.org/1999/xlink" x="0px" y="0px"
	 viewBox="0 0 720 720" style="enable-background:new 0 0 720 720;" xml:space="preserve">
<style type="text/css">
	.st0{fill:#97C93D;}
	.st1{fill:url(#SVGID_1_);}
	.st2{fill:url(#SVGID_2_);}
	.st3{fill:url(#SVGID_3_);}
	.st4{fill:url(#SVGID_4_);}
	.st5{fill:url(#SVGID_5_);}
	.st6{fill:url(#SVGID_6_);}
	.st7{fill:url(#SVGID_7_);}
	.st8{fill:url(#SVGID_8_);}
	.st9{fill:url(#SVGID_9_);}
	.st10{fill:url(#SVGID_10_);}
	.st11{fill:url(#SVGID_11_);}
</style>
<g>
	<path class="st0" d="M362.8,318.2c-1.6-2.8-4.6-4.5-7.8-4.5c-3.1,0-5.9,1.6-7.6,4.2l-16.9,29c-0.8,1.4-1.2,2.9-1.2,4.6c0,5,4,9,9,9
		h33.3c5,0,9-4,9-9c0-1.8-0.5-3.6-1.5-5L362.8,318.2z"/>
	
		<linearGradient id="SVGID_1_" gradientUnits="userSpaceOnUse" x1="364.9" y1="-48.0793" x2="364.9" y2="-111.1039" gradientTransform="matrix(1 0 0 1 0 492)">
		<stop  offset="0.2673" style="stop-color:#FFFFFF"/>
		<stop  offset="0.3297" style="stop-color:#F9FCF5"/>
		<stop  offset="0.4285" style="stop-color:#EFF6E3"/>
		<stop  offset="0.5513" style="stop-color:#E0EDC7"/>
		<stop  offset="0.6933" style="stop-color:#CCE2A0"/>
		<stop  offset="0.8494" style="stop-color:#B3D571"/>
		<stop  offset="1" style="stop-color:#97C93D"/>
	</linearGradient>
	<path class="st1" d="M640.4,381.5c-3.9,0-6.7-3-6.7-6.9c0-4.1,3.1-6.8,6.7-6.8c3.6,0,6.7,2.7,6.7,6.8
		C647.1,378.7,644,381.5,640.4,381.5 M640.4,369c-3,0-5.3,2.3-5.3,5.6c0,3.1,2,5.7,5.3,5.7c2.9,0,5.2-2.3,5.2-5.7
		C645.7,371.3,643.4,369,640.4,369 M639.1,378.5h-1.3V371h2.9c1.8,0,2.8,0.6,2.8,2.2c0,1.4-0.8,1.9-2,2.1l2.1,3.3h-1.4l-1.9-3.2
		h-1.2L639.1,378.5 M640.5,374.2c0.9,0,1.8-0.1,1.8-1.2c0-0.9-0.9-1-1.7-1h-1.5v2.2H640.5z M258.5,378.8c0-3.1,0.1-4.7,3.1-6.4
		c4.1-2.2,12.5-3.7,19.6-3.7c12.6,0,16.6,3.8,18.5,5.5c2.7-2.1,7-5.5,19.6-5.5c20.1,0,20,10,20,14.9v32.3c0,1.3-0.5,1.7-2.2,1.8
		h-6.5c-1.6,0-2.2-0.2-2.2-1.8v-30.1c-0.1-4.9-0.2-11.9-12-11.9c-4.3,0-7,1.2-8.5,2.1c-3.5,2.3-3.5,4.7-3.5,7.6v32.3
		c0,1.3-0.2,1.8-2.1,1.8h-6.4c-1.7,0-2.5-0.1-2.5-1.7v-31c0-3.3-0.1-11.4-11.8-11.4c-11.8,0-12.1,6.8-12.1,10v32.3
		c0,1.5-0.5,1.8-2.5,1.8h-6.3c-1.6,0-2.2-0.3-2.2-1.8V378.8z M360.3,416c0,1.6-0.6,1.7-2.5,1.7h-6.7c-1.8,0-1.8-0.4-1.8-1.7v-44.4
		c0-1.2,0-1.8,2.1-1.8h6.4c2,0,2.5,0.3,2.5,1.8V416z M424.7,415.8c0,0.8-0.1,1.7-1.6,1.8h-7.5c-2.2,0-3-0.2-3-1.8v-31
		c0-4.3,0-11.3-15.9-11.3c-14.5,0-14.6,5.9-14.6,8.2v34.1c0,1.7-0.9,1.8-2.8,1.8h-6.6c-1.9,0.1-2.6-0.2-2.6-1.8v-37.2
		c0-3.5,0.8-5.2,5.4-6.7c9.1-3.2,21.8-3.2,23.3-3.2c25.8,0,25.9,9.8,25.9,15.2L424.7,415.8L424.7,415.8z M481.8,408
		c-0.1,4.2-0.8,6.5-5.8,8.3c-5.2,1.8-13.3,2.5-19.1,2.5c-3.7,0-23.7,0-23.7-12.6c0-10.6,15.2-13.7,36.9-18v-4.7
		c0-3.6,0-9.9-10.2-9.9c-7.9,0-10.3,4.2-11.4,6c-0.9,1.8-2,4-6.1,4c-1.9,0-5.4-0.9-5.4-3.9c0-5.5,10.2-11,24.7-11
		c19.9,0,20.1,9.9,20.2,14.8V408H481.8z M470,392.5c-14.8,3.2-24.5,5.4-24.5,12.5c0,0.7,0,8.8,13.8,8.8c10.6,0,10.7-4.2,10.7-6.7
		V392.5z M503.1,373.9v30c0.1,3.9,0.1,4.9,1.6,6.6c1.5,1.9,4.1,3.2,8.1,3.2c0.5,0,3-0.1,3.5-0.1c2.4,0,2.7,1.3,2.7,1.8
		c0,2.4-7.5,3-10.6,3c-6.5,0-11.4-1.8-14.2-4.3c-3.1-2.9-3.3-5.9-3.3-8.8V364c0-1.7,0.4-2.1,2-3.2l6.2-3.8c1.4-0.8,1.9-1,2.3-1
		c1.4,0,1.5,1.2,1.5,2.3v11.3h11.8c1.6,0,2.2,0.1,2.2,1.3c0,2.5,0,2.8-2,2.8h-11.8L503.1,373.9L503.1,373.9z M550.6,418.8
		c-20.5,0-31.2-12.6-31.2-24.9c0-12.9,11.4-25.1,31.1-25.1c21.3,0,30.5,14,30.9,24.8C581.7,405.8,570.7,418.8,550.6,418.8z
		 M549.7,373.9c-10.7,0-17.6,7.7-17.6,18.7c0,12.9,9.4,20.6,19.1,20.6c10.2,0,18.2-7.6,17.4-20.3
		C567.7,380.1,558.8,373.9,549.7,373.9z M601.2,416.1c-0.1,1.5-0.8,1.6-2.4,1.6h-6.9c-1.9,0-2.7-0.1-2.7-1.6v-38.6
		c0-3.2,0.5-4.3,3.5-5.5c4.1-1.7,12.7-3.2,21.6-3.2c6.6,0,14,1,14,5.4c0,2.1-2.2,4-5.6,4c-2.4,0-3.4-0.7-5.7-2.5
		c-1.8-1.2-3.5-2.3-7.5-2.3c-8,0-8.1,4.1-8.3,6.5L601.2,416.1L601.2,416.1z M124.4,360.5H85.6c-2.1,0-2.9,0.6-2.9,2.3v53
		c0,2,1.2,2.2,2.9,2.2H96c1.6,0,3-0.2,3-2.1v-23.7h21c1.9,0,3-0.4,3-2.3v-3.8c0-2-1.2-2-2.9-2H99v-15.5h25.5c2.2,0,2.9-0.5,2.9-2.3
		v-3.9C127.3,360.5,126.2,360.5,124.4,360.5z M186.1,360.5h-7.5c-2.1,0-2.8,0.5-2.8,2.2v37c0,2.5,0,10.2-12.9,10.2
		c-8.4,0-12.9-3.5-12.9-10.1v-37.2c0-2-1.1-2.1-2.9-2.1h-11c-1.8,0-2.6,0.3-2.6,2v37.8c0,4.2,0.7,7.1,2.2,9.6
		c5.3,8.2,18.4,9.4,25.8,9.4c17.8,0,23.9-6.7,26-10.7c1-2.2,1.5-4.9,1.5-8.9v-37C189,360.7,187.7,360.5,186.1,360.5z M251.7,414.5
		l-20.4-22.8c5.1-1.4,17.2-5.2,17.2-15.4c0-10.9-10.3-16.4-30.7-16.4c-6.5,0-12.5,0.4-14.1,0.5c-5.8,0.5-7.3,0.8-7.3,3.9V416
		c0,1.5,0.7,2.1,2.6,2.1h10.5c2.4,0,2.8-1.2,2.8-2.4v-19.8c0-1,0.1-2,1.9-2c2.2,0,3.5,1.6,3.8,1.9l16.7,20.5
		c1.3,1.5,1.9,1.8,4.2,1.8h11.7c2.2,0,2.4-1.1,2.4-1.6C252.8,415.8,252.4,415.2,251.7,414.5z M212.2,367.3c1-0.1,2.8-0.2,4.6-0.2
		c6.6,0,15.5,1.1,15.5,10.3c0,3.9-2.2,10.5-16.8,10.5h-3.2v-20.6L212.2,367.3L212.2,367.3z"/>
	<g>
		
			<linearGradient id="SVGID_2_" gradientUnits="userSpaceOnUse" x1="962.1876" y1="-1956.5537" x2="954.5467" y2="-1997.0752" gradientTransform="matrix(1 0 0 1 -606.002 2314)">
			<stop  offset="0" style="stop-color:#99CA45"/>
			<stop  offset="1" style="stop-color:#57B94E"/>
		</linearGradient>
		<path class="st2" d="M361.9,319.8c-1.4-2.4-4-4.5-6.9-4.5c-2.8,0-5.2,2-6.6,4.2l-15.8,27.1c-0.7,1.2-1.5,3-1.5,4.5
			c0,4.4,3.2,7.8,8.9,7.7h30c5.5,0,8.9-3.5,8.9-7.9c0-1.7-0.9-3.5-1.8-4.8L361.9,319.8z"/>
	</g>
	<g>
		
			<linearGradient id="SVGID_3_" gradientUnits="userSpaceOnUse" x1="950.0079" y1="-1992.6343" x2="957.7028" y2="-1973.4595" gradientTransform="matrix(1 0 0 1 -606.002 2314)">
			<stop  offset="0" style="stop-color:#FFFFFF"/>
			<stop  offset="1" style="stop-color:#96C93D"/>
		</linearGradient>
		<path class="st3" d="M333.4,345.1l15.1-25.9c0,0,2.5-3.7,6.2-3.7c4.4,0,5.9,2.6,6.8,3.9l5.7,9.6c0,0,1.7,6-11,8.4
			C345.5,339.4,340.3,337.6,333.4,345.1z"/>
	</g>
	<g>
		<path class="st0" d="M338.3,326.1c0-7.5-5.6-13.6-12.4-13.6c-6.9,0-12.4,6.1-12.4,13.6s5.6,13.6,12.4,13.6
			C332.7,339.7,338.3,333.6,338.3,326.1z"/>
		<g>
			
				<linearGradient id="SVGID_4_" gradientUnits="userSpaceOnUse" x1="935.551" y1="-1975.0579" x2="929.8823" y2="-1995.5322" gradientTransform="matrix(1 0 0 1 -606.0021 2314)">
				<stop  offset="4.006416e-04" style="stop-color:#99CA45"/>
				<stop  offset="1" style="stop-color:#57B94E"/>
			</linearGradient>
			<path class="st4" d="M337,326.1c0,6.6-5.1,12-11.1,12s-10.9-5.4-10.9-12s4.9-12,10.9-12S336.9,319.1,337,326.1z"/>
		</g>
		
			<linearGradient id="SVGID_5_" gradientUnits="userSpaceOnUse" x1="927.6686" y1="-1998.8281" x2="932.7752" y2="-1985.637" gradientTransform="matrix(1 0 0 1 -606.002 2314)">
			<stop  offset="0" style="stop-color:#FFFFFF"/>
			<stop  offset="1" style="stop-color:#97C93D"/>
		</linearGradient>
		<path class="st5" d="M335.4,319.9c-2.2-3.6-5.4-5.9-9.3-5.9c-6,0-11.1,5.6-11.1,12.2c0,2.2,0.6,4.8,1.9,6.8c0,0-0.6-3.1,1.3-4.8
			c1.9-1.7,6.8-2,8.4-2.3C329.8,325.2,336.5,323.3,335.4,319.9z"/>
	</g>
	<g>
		<path class="st0" d="M354.2,303.3c0-7.5-5.6-13.6-12.4-13.6c-6.9,0-12.4,6.1-12.4,13.6s5.6,13.6,12.4,13.6
			C348.6,317,354.2,310.9,354.2,303.3z"/>
		<g>
			
				<linearGradient id="SVGID_6_" gradientUnits="userSpaceOnUse" x1="951.4575" y1="-1997.8342" x2="945.7889" y2="-2018.3088" gradientTransform="matrix(1 0 0 1 -606.0021 2314)">
				<stop  offset="4.006416e-04" style="stop-color:#99CA45"/>
				<stop  offset="1" style="stop-color:#57B94E"/>
			</linearGradient>
			<path class="st6" d="M352.9,303.3c0,6.6-5.1,12-11.1,12s-10.9-5.4-10.9-12s4.9-12,10.9-12S352.8,296.3,352.9,303.3z"/>
		</g>
		
			<linearGradient id="SVGID_7_" gradientUnits="userSpaceOnUse" x1="943.5772" y1="-2021.606" x2="948.6837" y2="-2008.415" gradientTransform="matrix(1 0 0 1 -606.002 2314)">
			<stop  offset="0" style="stop-color:#FFFFFF"/>
			<stop  offset="1" style="stop-color:#97C93D"/>
		</linearGradient>
		<path class="st7" d="M351.3,297.1c-2.2-3.6-5.4-5.9-9.3-5.9c-6,0-11.1,5.6-11.1,12.2c0,2.2,0.6,4.8,1.9,6.8c0,0-0.6-3.1,1.3-4.8
			c1.9-1.7,6.8-2,8.4-2.3C345.7,302.4,352.4,300.5,351.3,297.1z"/>
	</g>
	<g>
		<path class="st0" d="M380.6,303.3c0-7.5-5.6-13.6-12.4-13.6c-6.9,0-12.4,6.1-12.4,13.6s5.6,13.6,12.4,13.6
			C375.1,317,380.6,310.9,380.6,303.3z"/>
		<g>
			
				<linearGradient id="SVGID_8_" gradientUnits="userSpaceOnUse" x1="977.8812" y1="-1997.8289" x2="972.2125" y2="-2018.3035" gradientTransform="matrix(1 0 0 1 -606.0021 2314)">
				<stop  offset="4.006416e-04" style="stop-color:#99CA45"/>
				<stop  offset="1" style="stop-color:#57B94E"/>
			</linearGradient>
			<path class="st8" d="M379.3,303.3c0,6.6-5.1,12-11.1,12s-10.9-5.4-10.9-12s4.9-12,10.9-12C374.3,291.3,379.3,296.3,379.3,303.3z"
				/>
		</g>
		
			<linearGradient id="SVGID_9_" gradientUnits="userSpaceOnUse" x1="969.9828" y1="-2021.5916" x2="975.0894" y2="-2008.4004" gradientTransform="matrix(1 0 0 1 -606.002 2314)">
			<stop  offset="0" style="stop-color:#FFFFFF"/>
			<stop  offset="1" style="stop-color:#97C93D"/>
		</linearGradient>
		<path class="st9" d="M377.7,297.1c-2.2-3.6-5.4-5.9-9.3-5.9c-6,0-11.1,5.6-11.1,12.2c0,2.2,0.6,4.8,1.9,6.8c0,0-0.6-3.1,1.3-4.8
			c1.9-1.7,6.8-2,8.4-2.3C372.1,302.4,378.8,300.5,377.7,297.1z"/>
	</g>
	<g>
		<path class="st0" d="M396.3,326.1c0-7.5-5.6-13.6-12.4-13.6c-6.9,0-12.4,6.1-12.4,13.6s5.6,13.6,12.4,13.6
			C390.7,339.7,396.3,333.6,396.3,326.1z"/>
		<g>
			
				<linearGradient id="SVGID_10_" gradientUnits="userSpaceOnUse" x1="993.55" y1="-1975.061" x2="987.8815" y2="-1995.5356" gradientTransform="matrix(1 0 0 1 -606.0021 2314)">
				<stop  offset="4.006416e-04" style="stop-color:#99CA45"/>
				<stop  offset="1" style="stop-color:#57B94E"/>
			</linearGradient>
			<path class="st10" d="M395,326.1c0,6.6-5.1,12-11.1,12s-10.9-5.4-10.9-12s4.9-12,10.9-12S394.9,319.1,395,326.1z"/>
		</g>
		
			<linearGradient id="SVGID_11_" gradientUnits="userSpaceOnUse" x1="985.667" y1="-1998.8325" x2="990.7735" y2="-1985.6414" gradientTransform="matrix(1 0 0 1 -606.002 2314)">
			<stop  offset="0" style="stop-color:#FFFFFF"/>
			<stop  offset="1" style="stop-color:#97C93D"/>
		</linearGradient>
		<path class="st11" d="M393.4,319.9c-2.2-3.6-5.4-5.9-9.3-5.9c-6,0-11.1,5.6-11.1,12.2c0,2.2,0.6,4.8,1.9,6.8c0,0-0.6-3.1,1.3-4.8
			c1.9-1.7,6.8-2,8.4-2.3C387.8,325.2,394.5,323.3,393.4,319.9z"/>
	</g>
</g>
</svg>
